<svg xmlns="http://www.w3.org/2000/svg" width="40" height="578" viewBox="0 0 40 578"><defs><clipPath id="y3rka"><path fill="#fff" d="M20 .255c11.105 0 20.108 9.189 20.108 20.524S31.105 41.302 20 41.302C8.894 41.302-.108 32.114-.108 20.78-.108 9.444 8.894.255 20 .255z"/></clipPath><clipPath id="y3rkb"><path fill="#fff" d="M20 11.556c4.858 0 8.797 4.216 8.797 9.418 0 5.201-3.939 9.418-8.797 9.418-4.859 0-8.797-4.217-8.797-9.418 0-5.202 3.938-9.418 8.797-9.418z"/></clipPath><clipPath id="y3rkc"><path fill="#fff" d="M20 200.583c11.105 0 20.108 9.19 20.108 20.524 0 11.335-9.003 20.524-20.108 20.524-11.106 0-20.108-9.19-20.108-20.524 0-11.335 9.002-20.524 20.108-20.524z"/></clipPath><clipPath id="y3rkd"><path fill="#fff" d="M20 211.2c4.858 0 8.797 4.216 8.797 9.418 0 5.201-3.939 9.418-8.797 9.418-4.859 0-8.797-4.217-8.797-9.418 0-5.202 3.938-9.418 8.797-9.418z"/></clipPath><clipPath id="y3rke"><path fill="#fff" d="M20 337.87c11.105 0 20.108 9.188 20.108 20.523 0 11.336-9.003 20.525-20.108 20.525-11.106 0-20.108-9.19-20.108-20.525 0-11.335 9.002-20.524 20.108-20.524z"/></clipPath><clipPath id="y3rkf"><path fill="#fff" d="M20 349.319c4.858 0 8.797 4.216 8.797 9.418 0 5.201-3.939 9.418-8.797 9.418-4.859 0-8.797-4.217-8.797-9.418 0-5.202 3.938-9.418 8.797-9.418z"/></clipPath><clipPath id="y3rkg"><path fill="#fff" d="M20 536.943c11.105 0 20.108 9.188 20.108 20.523 0 11.335-9.003 20.524-20.108 20.524-11.106 0-20.108-9.189-20.108-20.524S8.894 536.943 20 536.943z"/></clipPath><clipPath id="y3rkh"><path fill="#fff" d="M20 547.707c4.858 0 8.797 4.217 8.797 9.418 0 5.202-3.939 9.419-8.797 9.419-4.859 0-8.797-4.217-8.797-9.419 0-5.201 3.938-9.418 8.797-9.418z"/></clipPath></defs><g><g><path fill="#353541" d="M20 36.668h1.257v526.107H20z"/></g><g><path fill="#f9f9f9" d="M20 .255c11.105 0 20.108 9.189 20.108 20.524S31.105 41.302 20 41.302C8.894 41.302-.108 32.114-.108 20.78-.108 9.444 8.894.255 20 .255z"/><path fill="none" stroke="#000" stroke-miterlimit="50" stroke-width="4" d="M20 .255c11.105 0 20.108 9.189 20.108 20.524S31.105 41.302 20 41.302C8.894 41.302-.108 32.114-.108 20.78-.108 9.444 8.894.255 20 .255z" clip-path="url(&quot;#y3rka&quot;)"/></g><g><path fill="#fb6470" d="M20 11.556c4.858 0 8.797 4.216 8.797 9.418 0 5.201-3.939 9.418-8.797 9.418-4.859 0-8.797-4.217-8.797-9.418 0-5.202 3.938-9.418 8.797-9.418z"/><path fill="none" stroke="#000" stroke-miterlimit="50" stroke-width="4" d="M20 11.556c4.858 0 8.797 4.216 8.797 9.418 0 5.201-3.939 9.418-8.797 9.418-4.859 0-8.797-4.217-8.797-9.418 0-5.202 3.938-9.418 8.797-9.418z" clip-path="url(&quot;#y3rkb&quot;)"/></g><g><path fill="#f9f9f9" d="M20 200.583c11.105 0 20.108 9.19 20.108 20.524 0 11.335-9.003 20.524-20.108 20.524-11.106 0-20.108-9.19-20.108-20.524 0-11.335 9.002-20.524 20.108-20.524z"/><path fill="none" stroke="#000" stroke-miterlimit="50" stroke-width="4" d="M20 200.583c11.105 0 20.108 9.19 20.108 20.524 0 11.335-9.003 20.524-20.108 20.524-11.106 0-20.108-9.19-20.108-20.524 0-11.335 9.002-20.524 20.108-20.524z" clip-path="url(&quot;#y3rkc&quot;)"/></g><g><path fill="#fb6470" d="M20 211.2c4.858 0 8.797 4.216 8.797 9.418 0 5.201-3.939 9.418-8.797 9.418-4.859 0-8.797-4.217-8.797-9.418 0-5.202 3.938-9.418 8.797-9.418z"/><path fill="none" stroke="#000" stroke-miterlimit="50" stroke-width="4" d="M20 211.2c4.858 0 8.797 4.216 8.797 9.418 0 5.201-3.939 9.418-8.797 9.418-4.859 0-8.797-4.217-8.797-9.418 0-5.202 3.938-9.418 8.797-9.418z" clip-path="url(&quot;#y3rkd&quot;)"/></g><g><path fill="#f9f9f9" d="M20 337.87c11.105 0 20.108 9.188 20.108 20.523 0 11.336-9.003 20.525-20.108 20.525-11.106 0-20.108-9.19-20.108-20.525 0-11.335 9.002-20.524 20.108-20.524z"/><path fill="none" stroke="#000" stroke-miterlimit="50" stroke-width="4" d="M20 337.87c11.105 0 20.108 9.188 20.108 20.523 0 11.336-9.003 20.525-20.108 20.525-11.106 0-20.108-9.19-20.108-20.525 0-11.335 9.002-20.524 20.108-20.524z" clip-path="url(&quot;#y3rke&quot;)"/></g><g><path fill="#fb6470" d="M20 349.319c4.858 0 8.797 4.216 8.797 9.418 0 5.201-3.939 9.418-8.797 9.418-4.859 0-8.797-4.217-8.797-9.418 0-5.202 3.938-9.418 8.797-9.418z"/><path fill="none" stroke="#000" stroke-miterlimit="50" stroke-width="4" d="M20 349.319c4.858 0 8.797 4.216 8.797 9.418 0 5.201-3.939 9.418-8.797 9.418-4.859 0-8.797-4.217-8.797-9.418 0-5.202 3.938-9.418 8.797-9.418z" clip-path="url(&quot;#y3rkf&quot;)"/></g><g><path fill="#f9f9f9" d="M20 536.943c11.105 0 20.108 9.188 20.108 20.523 0 11.335-9.003 20.524-20.108 20.524-11.106 0-20.108-9.189-20.108-20.524S8.894 536.943 20 536.943z"/><path fill="none" stroke="#000" stroke-miterlimit="50" stroke-width="4" d="M20 536.943c11.105 0 20.108 9.188 20.108 20.523 0 11.335-9.003 20.524-20.108 20.524-11.106 0-20.108-9.189-20.108-20.524S8.894 536.943 20 536.943z" clip-path="url(&quot;#y3rkg&quot;)"/></g><g><path fill="#fb6470" d="M20 547.707c4.858 0 8.797 4.217 8.797 9.418 0 5.202-3.939 9.419-8.797 9.419-4.859 0-8.797-4.217-8.797-9.419 0-5.201 3.938-9.418 8.797-9.418z"/><path fill="none" stroke="#000" stroke-miterlimit="50" stroke-width="4" d="M20 547.707c4.858 0 8.797 4.217 8.797 9.418 0 5.202-3.939 9.419-8.797 9.419-4.859 0-8.797-4.217-8.797-9.419 0-5.201 3.938-9.418 8.797-9.418z" clip-path="url(&quot;#y3rkh&quot;)"/></g></g></svg>